<?xml version="1.0" encoding="utf-8"?>
<!-- Generator: Adobe Illustrator 21.1.0, SVG Export Plug-In . SVG Version: 6.00 Build 0)  -->
<svg version="1.1" id="amex" xmlns="http://www.w3.org/2000/svg" xmlns:xlink="http://www.w3.org/1999/xlink" x="0px" y="0px"
	 viewBox="0 0 190 120" style="enable-background:new 0 0 190 120;" xml:space="preserve">
<style type="text/css">
	.st0{fill:#FFFFFF;}
	.st1{fill:#0079C1;}
</style>
<rect class="st0" width="190" height="119.6"/>
<g>
	<path class="st1" d="M150.1,84.5h-39.3l-2.5-3.2v3.2h-8.5v-5.2c-1.1,0.4-2.3,0.6-3.7,0.6h-1.4v4.5H82.1l-1.9-2.7l-1.9,2.7H57.8
		V64.7h20.6l1.9,2.7l1.9-2.7h72.5V0H35v48.6l4.1-9.7h8.3l2.1,5v-5h10.1l1.3,3.9l1.3-3.9h43.9v1.8c1.6-1.3,3.8-1.8,6.1-1.8h13.6
		l2.1,5v-5h8.2l2.4,3.7v-3.7h8.7v19.8h-8.6l-2.2-3.5v3.5h-12.2l-1.1-2.9h-2.6l-1.1,2.9H112c-1.9,0-4.1-0.4-5.9-1.7v1.7H93.8
		l-2.5-3.2v3.2H45.8l-1.1-2.9h-2.6L41,58.7h-6v60.9h119.7V83.2C153.4,84,151.9,84.5,150.1,84.5L150.1,84.5z"/>
	<path class="st1" d="M150.1,78.5h-7.3v3.2h7.3c3.1,0,4.9-1.9,4.9-4.6c0-2.6-1.6-4-4.4-4h-3.3c-0.7,0-1.3-0.5-1.3-1.2
		s0.5-1.1,1.3-1.1h6.1l1.4-3.2h-7.4c-3.1,0-4.9,1.9-4.9,4.4c0,2.7,1.7,4.2,4.4,4.2h3.3c0.7,0,1.3,0.5,1.3,1.2
		C151.4,78,150.9,78.5,150.1,78.5 M137.2,78.5h-7.3v3.2h7.3c3.1,0,4.9-1.9,4.9-4.6c0-2.6-1.6-4-4.4-4h-3.3c-0.7,0-1.3-0.5-1.3-1.2
		s0.5-1.1,1.3-1.1h6.1l1.4-3.2h-7.4c-3.1,0-4.9,1.9-4.9,4.4c0,2.7,1.7,4.2,4.4,4.2h3.3c0.7,0,1.3,0.5,1.3,1.2
		C138.5,78,138,78.5,137.2,78.5 M128.3,70.7v-3.2h-11.5v14.1h11.5v-3.2h-7.9V76h7.7v-3h-7.7v-2.3H128.3L128.3,70.7z M110.2,70.7
		c1.1,0,1.7,0.7,1.7,1.5s-0.6,1.4-1.7,1.4h-3.9v-2.9H110.2L110.2,70.7z M106.3,76.7h1.4l4.2,5h4.4l-4.6-5.1c2.3-0.5,3.7-2.2,3.7-4.4
		c0-2.7-1.9-4.6-4.9-4.6h-7.8v14.1h3.6L106.3,76.7L106.3,76.7z M97.6,72.3c0,0.9-0.6,1.6-1.7,1.6h-4v-3.2h4
		C97,70.7,97.6,71.4,97.6,72.3 M88.3,67.5v14.1h3.6V77h4.2c3.1,0,5-2,5-4.8s-1.9-4.8-4.9-4.8h-7.9V67.5z M83.5,81.7H88l-5.7-7.1
		l5.6-7h-4.4l-3.3,4.3L77,67.5h-4.5l5.6,7.1l-5.6,7h4.4l3.3-4.4L83.5,81.7L83.5,81.7z M72.2,70.7v-3.2H60.7v14.1h11.5v-3.2h-7.9V76
		H72v-3h-7.7v-2.3H72.2L72.2,70.7z"/>
	<path class="st1" d="M140,55.9h4.4V41.8h-3.6v8.7l-5.6-8.7h-4.5v14.1h3.6v-9.1L140,55.9L140,55.9z M119.8,49.9l2-4.8l2,4.8H119.8
		L119.8,49.9z M126.2,55.9h4l-6-14.1h-4.7l-6,14.1h3.9l1.2-2.9h6.4L126.2,55.9L126.2,55.9z M111.7,55.9h0.3l1.5-3.2h-1.1
		c-2.3,0-3.6-1.4-3.6-3.8v-0.2c0-2.1,1.2-3.7,3.5-3.7h3.8v-3.3H112c-4.4,0-6.8,2.9-6.8,7v0.2C105.1,53.3,107.6,55.9,111.7,55.9
		 M99.8,55.9h3.6v-7.1v-7.1h-3.6v7.1V55.9L99.8,55.9z M93.1,45c1.1,0,1.7,0.7,1.7,1.5s-0.6,1.4-1.7,1.4h-3.9V45H93.1L93.1,45z
		 M89.2,50.9h1.4l4.2,5h4.4l-4.6-5.1c2.3-0.5,3.7-2.2,3.7-4.4c0-2.7-1.9-4.6-4.9-4.6h-7.8v14.1h3.6L89.2,50.9L89.2,50.9z M83.6,45
		v-3.2H72.1v14.1h11.5v-3.2h-7.9v-2.4h7.7v-3.1h-7.7V45H83.6L83.6,45z M59.4,55.9h3.1l3.7-10.4v10.4h3.5V41.8h-5.6l-3.1,9l-3.2-9
		h-5.7v14.1h3.5V45.5L59.4,55.9L59.4,55.9z M41.4,49.9l2-4.8l2,4.8H41.4L41.4,49.9z M47.7,55.9h4l-6-14.1H41l-6,14.1h4l1.2-2.9h6.4
		L47.7,55.9L47.7,55.9z"/>
</g>
</svg>
