<?xml version="1.0" encoding="utf-8"?>
<!-- Generator: Adobe Illustrator 21.1.0, SVG Export Plug-In . SVG Version: 6.00 Build 0)  -->
<svg version="1.1" id="discover" xmlns="http://www.w3.org/2000/svg" xmlns:xlink="http://www.w3.org/1999/xlink" x="0px" y="0px"
	 viewBox="0 0 190 120" style="enable-background:new 0 0 190 120;" xml:space="preserve">
<style type="text/css">
	.st0{fill:#FFFFFF;}
	.st1{fill:#F26E21;}
	.st2{fill:#0B161F;}
	.st3{fill:#231F20;}
</style>
<rect class="st0" width="190" height="120"/>
<circle class="st1" cx="99.3" cy="60.5" r="13.5"/>
<g>
	<path class="st2" d="M26.5,67c-1.6,1.4-3.6,2-6.9,2h-1.4V52h1.4c3.3,0,5.2,0.6,6.9,2.1s2.8,3.9,2.8,6.4S28.3,65.4,26.5,67L26.5,67z
		 M20.6,47.7h-7.4v25.6h7.4c3.9,0,6.7-0.9,9.2-3c2.9-2.4,4.7-6.1,4.7-9.8C34.5,53,28.8,47.7,20.6,47.7"/>
	<polyline class="st2" points="36.8,73.3 41.9,73.3 41.9,47.7 36.8,47.7 36.8,73.3 	"/>
	<path class="st2" d="M54.2,57.5c-3-1.1-3.9-1.8-3.9-3.2c0-1.6,1.6-2.8,3.8-2.8c1.5,0,2.8,0.6,4.1,2.1l2.6-3.4
		c-2.2-1.9-4.8-2.8-7.6-2.8c-4.6,0-8.1,3.2-8.1,7.3c0,3.5,1.6,5.3,6.4,7c2,0.7,3,1.1,3.5,1.5c1,0.7,1.5,1.6,1.5,2.7
		c0,2.1-1.7,3.6-3.9,3.6c-2.4,0-4.3-1.2-5.5-3.4l-3.3,3.1c2.3,3.4,5.1,4.9,9,4.9c5.2,0,8.9-3.5,8.9-8.4
		C61.6,61.5,59.9,59.6,54.2,57.5"/>
	<path class="st2" d="M63.2,60.5c0,7.5,6,13.4,13.6,13.4c2.2,0,4-0.4,6.3-1.5v-5.9c-2,2-3.8,2.8-6.1,2.8c-5.1,0-8.7-3.7-8.7-8.8
		c0-4.9,3.7-8.8,8.5-8.8c2.4,0,4.2,0.8,6.3,2.9v-5.9c-2.2-1.1-4-1.6-6.2-1.6C69.4,47.1,63.2,53.1,63.2,60.5"/>
	<polyline class="st2" points="124.1,64.9 117.2,47.7 111.6,47.7 122.6,74 125.3,74 136.5,47.7 131,47.7 124.1,64.9 	"/>
	<polyline class="st2" points="138.8,73.3 153.1,73.3 153.1,69 143.8,69 143.8,62.1 152.7,62.1 152.7,57.7 143.8,57.7 143.8,52 
		153.1,52 153.1,47.7 138.8,47.7 138.8,73.3 	"/>
	<path class="st2" d="M162.9,59.5h-1.5v-7.8h1.5c3.1,0,4.9,1.3,4.9,3.8C167.9,58.1,166.2,59.5,162.9,59.5L162.9,59.5z M173,55.3
		c0-4.8-3.3-7.6-9.1-7.6h-7.5v25.6h5V63h0.7l7,10.3h6.2l-8.1-10.8C171,61.8,173,59.2,173,55.3"/>
</g>
<path class="st3" d="M175.4,49.1c0-0.4-0.3-0.6-0.7-0.6H174v2h0.5v-0.8l0.6,0.8h0.6l-0.7-0.8C175.3,49.5,175.4,49.3,175.4,49.1z
	 M174.6,49.3L174.6,49.3l-0.1-0.5h0.1c0.2,0,0.4,0.1,0.4,0.3C174.9,49.2,174.8,49.3,174.6,49.3z"/>
<g>
	<path class="st3" d="M174.8,47.7c-1,0-1.7,0.8-1.7,1.7c0,1,0.8,1.7,1.7,1.7s1.7-0.8,1.7-1.7S175.7,47.7,174.8,47.7z M174.8,50.8
		c-0.8,0-1.4-0.6-1.4-1.4c0-0.8,0.6-1.4,1.4-1.4c0.7,0,1.4,0.6,1.4,1.4C176.1,50.2,175.5,50.8,174.8,50.8z"/>
</g>
</svg>
