<?xml version="1.0" encoding="utf-8"?>
<!-- Generator: Adobe Illustrator 21.1.0, SVG Export Plug-In . SVG Version: 6.00 Build 0)  -->
<svg version="1.1" id="mastercard" xmlns="http://www.w3.org/2000/svg" xmlns:xlink="http://www.w3.org/1999/xlink" x="0px" y="0px"
	 viewBox="0 0 190 120" style="enable-background:new 0 0 190 120;" xml:space="preserve">
<style type="text/css">
	.st0{fill:#FFFFFF;}
	.st1{fill:none;}
	.st2{fill:#231F20;}
	.st3{fill:#FF5F00;}
	.st4{fill:#EB001B;}
	.st5{fill:#F79E1B;}
</style>
<rect class="st0" width="190" height="120"/>
<g id="Layer_2">
	<g id="Layer_1-2">
		<rect x="21" class="st1" width="146.8" height="120.4"/>
		<path class="st2" d="M57.3,105.3v-6c0.1-2-1.3-3.7-3.3-3.8c-0.2,0-0.3,0-0.5,0c-1.3-0.1-2.6,0.6-3.4,1.7c-0.7-1.1-1.9-1.8-3.2-1.7
			c-1.1-0.1-2.2,0.5-2.8,1.4v-1.2H42v9.6h2.1V100c-0.2-1.2,0.7-2.4,1.9-2.5c0.1,0,0.3,0,0.4,0c1.4,0,2.1,0.9,2.1,2.5v5.3h2.1V100
			c-0.2-1.2,0.7-2.4,1.9-2.5c0.1,0,0.3,0,0.4,0c1.4,0,2.1,0.9,2.1,2.5v5.3H57.3z M88.4,95.7H85v-2.9h-2.1v2.9H81v1.9h1.9v4.4
			c0,2.2,0.9,3.5,3.3,3.5c0.9,0,1.8-0.3,2.6-0.7l-0.6-1.8c-0.6,0.3-1.2,0.5-1.8,0.5c-1,0-1.4-0.6-1.4-1.6v-4.4h3.4V95.7z
			 M106.2,95.5c-1,0-2,0.5-2.5,1.4v-1.2h-2.1v9.6h2.1v-5.4c0-1.6,0.7-2.5,2-2.5c0.4,0,0.9,0.1,1.3,0.2l0.6-2
			C107.1,95.5,106.6,95.4,106.2,95.5L106.2,95.5z M79.3,96.5c-1.2-0.7-2.5-1-3.9-1c-2.4,0-4,1.2-4,3.1c0,1.6,1.2,2.5,3.3,2.8l1,0.1
			c1.1,0.2,1.7,0.5,1.7,1c0,0.7-0.8,1.2-2.2,1.2c-1.1,0-2.3-0.3-3.2-1l-1,1.6c1.2,0.8,2.7,1.3,4.1,1.2c2.8,0,4.4-1.3,4.4-3.1
			s-1.3-2.6-3.3-2.9l-1-0.1c-0.9-0.1-1.6-0.3-1.6-0.9s0.7-1.1,1.8-1.1c1.1,0,2.1,0.3,3,0.8L79.3,96.5z M135,95.5c-1,0-2,0.5-2.5,1.4
			v-1.2h-2.1v9.6h2.1v-5.4c0-1.6,0.7-2.5,2-2.5c0.4,0,0.9,0.1,1.3,0.2l0.6-2C136,95.5,135.5,95.4,135,95.5L135,95.5z M108.2,100.5
			c-0.1,2.7,2,4.9,4.6,5c0.2,0,0.3,0,0.5,0c1.2,0.1,2.5-0.3,3.4-1.1l-1-1.7c-0.7,0.5-1.6,0.8-2.5,0.9c-1.7-0.1-2.9-1.6-2.8-3.3
			c0.1-1.5,1.3-2.7,2.8-2.8c0.9,0,1.8,0.3,2.5,0.9l1-1.7c-1-0.8-2.2-1.2-3.4-1.1c-2.7-0.2-4.9,1.9-5.1,4.5
			C108.2,100.1,108.2,100.3,108.2,100.5L108.2,100.5z M127.7,100.5v-4.8h-2.1v1.2c-0.7-0.9-1.8-1.4-3-1.4c-2.8,0-5,2.2-5,5
			s2.2,5,5,5c1.2,0,2.3-0.5,3-1.4v1.2h2.1V100.5z M120,100.5c0.1-1.6,1.5-2.8,3.1-2.7s2.8,1.5,2.7,3.1c-0.1,1.5-1.3,2.7-2.9,2.7
			s-2.9-1.2-2.9-2.8C120,100.6,120,100.5,120,100.5z M94.9,95.5c-2.8,0-5,2.3-4.9,5.1s2.3,5,5.1,4.9l0,0c1.4,0.1,2.9-0.4,4-1.3
			l-1-1.5c-0.8,0.6-1.8,1-2.8,1c-1.4,0.1-2.7-0.9-2.9-2.3h7.1c0-0.3,0-0.5,0-0.8C99.5,97.5,97.6,95.5,94.9,95.5L94.9,95.5z
			 M94.9,97.3c1.3,0,2.4,1,2.4,2.3l0,0h-5C92.4,98.3,93.5,97.3,94.9,97.3L94.9,97.3z M147,100.5v-8.6h-2v5c-0.7-0.9-1.8-1.4-3-1.4
			c-2.8,0-5,2.2-5,5s2.2,5,5,5c1.2,0,2.3-0.5,3-1.4v1.2h2V100.5z M150.5,103.9c0.1,0,0.3,0,0.4,0.1c0.1,0,0.2,0.1,0.3,0.2
			s0.2,0.2,0.2,0.3c0.1,0.2,0.1,0.5,0,0.7c-0.1,0.1-0.1,0.2-0.2,0.3c-0.1,0.1-0.2,0.2-0.3,0.2c-0.1,0.1-0.2,0.1-0.4,0.1
			c-0.4,0-0.7-0.2-0.9-0.6c-0.1-0.2-0.1-0.5,0-0.7c0.1-0.1,0.1-0.2,0.2-0.3c0.1-0.1,0.2-0.2,0.3-0.2
			C150.2,103.9,150.4,103.9,150.5,103.9L150.5,103.9z M150.5,105.6c0.1,0,0.2,0,0.3-0.1c0.1,0,0.2-0.1,0.2-0.2c0.3-0.3,0.3-0.7,0-1
			c-0.1-0.1-0.1-0.1-0.2-0.2c-0.1,0-0.2-0.1-0.3-0.1s-0.2,0-0.3,0.1c-0.1,0-0.2,0.1-0.2,0.2c-0.3,0.3-0.3,0.7,0,1
			c0.1,0.1,0.2,0.1,0.2,0.2C150.3,105.5,150.4,105.6,150.5,105.6L150.5,105.6z M150.5,104.4c0.1,0,0.2,0,0.3,0.1s0.1,0.1,0.1,0.2
			s0,0.1-0.1,0.2s-0.1,0.1-0.2,0.1l0.3,0.3h-0.2l-0.3-0.3h-0.1v0.3h-0.2v-0.9L150.5,104.4z M150.3,104.5v0.2h0.2h0.1v-0.1v-0.1h-0.1
			H150.3z M139.3,100.5c0.1-1.6,1.5-2.8,3.1-2.7c1.6,0.1,2.8,1.5,2.7,3.1c-0.1,1.5-1.3,2.7-2.9,2.7c-1.6,0-2.9-1.2-2.9-2.8
			C139.3,100.6,139.3,100.6,139.3,100.5z M69.1,100.5v-4.8H67v1.2c-0.7-0.9-1.8-1.4-3-1.4c-2.8,0-5,2.2-5,5s2.2,5,5,5
			c1.2,0,2.3-0.5,3-1.4v1.2h2.1V100.5z M61.3,100.5c0.1-1.6,1.5-2.8,3.1-2.7c1.6,0.1,2.8,1.5,2.7,3.1c-0.1,1.5-1.3,2.7-2.9,2.7
			s-2.9-1.2-2.9-2.8C61.3,100.6,61.3,100.6,61.3,100.5L61.3,100.5z"/>
		<g id="_Group_">
			<rect x="78.7" y="22.9" class="st3" width="31.5" height="56.6"/>
			<path id="_Path_" class="st4" d="M80.7,51.2c0-11,5.1-21.5,13.8-28.3C78.9,10.6,56.2,13.3,44,29s-9.6,38.3,6.1,50.5
				c13.1,10.3,31.4,10.3,44.5,0C85.7,72.6,80.6,62.2,80.7,51.2z"/>
			<path class="st5" d="M152.6,51.2c0,19.9-16.1,36-36,36c-8.1,0-15.9-2.7-22.2-7.7c15.6-12.3,18.3-34.9,6.1-50.5
				c-1.8-2.3-3.8-4.3-6.1-6.1C110,10.6,132.7,13.3,145,29C149.9,35.2,152.6,43.1,152.6,51.2L152.6,51.2z"/>
			<path class="st5" d="M149.2,73.5v-1.2h0.5v-0.2h-1.2v0.2h0.5v1.2H149.2z M151.5,73.5v-1.4h-0.4l-0.4,1l-0.4-1H150v1.4h0.3v-1
				l0.4,0.9h0.3l0.4-0.9v1.1L151.5,73.5z"/>
		</g>
	</g>
</g>
</svg>
