<?xml version="1.0" encoding="utf-8"?>
<!-- Generator: Adobe Illustrator 21.1.0, SVG Export Plug-In . SVG Version: 6.00 Build 0)  -->
<svg version="1.1" id="visa" xmlns="http://www.w3.org/2000/svg" xmlns:xlink="http://www.w3.org/1999/xlink" x="0px" y="0px"
	 viewBox="0 0 190 120" style="enable-background:new 0 0 190 120;" xml:space="preserve">
<style type="text/css">
	.st0{fill:#FFFFFF;}
	.st1{fill:#F7B600;}
	.st2{fill:#1A1F71;}
</style>
<rect x="0.7" class="st0" width="188.5" height="119.7"/>
<rect x="3.8" y="100.3" class="st1" width="182.2" height="16.3"/>
<rect x="3.8" y="3.2" class="st2" width="182.2" height="16.3"/>
<path class="st2" d="M76.7,37.5L57.9,82.4H45.6l-9.2-35.9c-0.6-2.2-1.1-3-2.7-3.9c-3.6-1.8-7.5-3-11.5-3.8l0.2-1.3h19.8
	c2.7,0,4.9,2,5.3,4.6l4.9,25.9l12.1-30.5H76.7z M124.9,67.7c0-11.8-16.3-12.6-16.2-17.8c0-1.7,1.5-3.3,5-3.8c3.9-0.4,7.9,0.3,11.5,2
	l2-9.5c-3.5-1.3-7.2-2-10.9-2c-11.5,0-19.5,6.2-19.7,14.8c-0.1,6.5,5.8,10.1,10.2,12.2s6,3.7,6,5.6c0,3-3.7,4.4-7,4.4
	c-4.2,0.1-8.3-0.9-12-2.8l-2.1,9.8c4.1,1.6,8.5,2.5,12.9,2.4C116.9,83.1,124.8,77.1,124.9,67.7 M155.2,82.4H166l-9.4-44.9h-9.9
	c-2.2,0-4.2,1.3-5,3.3l-17.5,41.6h12.2l2.4-6.7h14.9L155.2,82.4z M142.2,66.5l6.2-16.8l3.6,16.8H142.2z M93.3,37.5l-9.6,44.9H72.1
	l9.6-44.9L93.3,37.5z"/>
</svg>
